<mxfile host="app.diagrams.net" agent="Mozilla/5.0 (Windows NT 10.0; Win64; x64) AppleWebKit/537.36 (KHTML, like Gecko) Chrome/132.0.0.0 Safari/537.36" version="26.0.6">
  <diagram name="PÃ¡gina-1" id="g09LnU6JzNmc2rMWg49G">
    <mxGraphModel dx="880" dy="460" grid="1" gridSize="10" guides="1" tooltips="1" connect="1" arrows="1" fold="1" page="1" pageScale="1" pageWidth="827" pageHeight="1169" math="0" shadow="0">
      <root>
        <mxCell id="0" />
        <mxCell id="1" parent="0" />
        <mxCell id="vVHXO90k3WB2f8u6BudB-10" value="" style="edgeStyle=orthogonalEdgeStyle;rounded=0;orthogonalLoop=1;jettySize=auto;html=1;" edge="1" parent="1" source="vVHXO90k3WB2f8u6BudB-1" target="vVHXO90k3WB2f8u6BudB-9">
          <mxGeometry relative="1" as="geometry" />
        </mxCell>
        <mxCell id="vVHXO90k3WB2f8u6BudB-12" value="" style="edgeStyle=orthogonalEdgeStyle;rounded=0;orthogonalLoop=1;jettySize=auto;html=1;" edge="1" parent="1" source="vVHXO90k3WB2f8u6BudB-1" target="vVHXO90k3WB2f8u6BudB-11">
          <mxGeometry relative="1" as="geometry" />
        </mxCell>
        <mxCell id="vVHXO90k3WB2f8u6BudB-14" value="" style="edgeStyle=orthogonalEdgeStyle;rounded=0;orthogonalLoop=1;jettySize=auto;html=1;" edge="1" parent="1" source="vVHXO90k3WB2f8u6BudB-1" target="vVHXO90k3WB2f8u6BudB-13">
          <mxGeometry relative="1" as="geometry" />
        </mxCell>
        <mxCell id="vVHXO90k3WB2f8u6BudB-1" value="Iphone" style="rounded=0;whiteSpace=wrap;html=1;fillColor=#e1d5e7;strokeColor=#9673a6;" vertex="1" parent="1">
          <mxGeometry x="330" y="20" width="60" height="60" as="geometry" />
        </mxCell>
        <mxCell id="vVHXO90k3WB2f8u6BudB-9" value="ReprodutorMusical" style="whiteSpace=wrap;html=1;fillColor=#e1d5e7;strokeColor=#9673a6;rounded=0;" vertex="1" parent="1">
          <mxGeometry x="70" y="200" width="120" height="60" as="geometry" />
        </mxCell>
        <mxCell id="vVHXO90k3WB2f8u6BudB-11" value="AparelhoTelefonico" style="whiteSpace=wrap;html=1;fillColor=#e1d5e7;strokeColor=#9673a6;rounded=0;" vertex="1" parent="1">
          <mxGeometry x="300" y="200" width="120" height="60" as="geometry" />
        </mxCell>
        <mxCell id="vVHXO90k3WB2f8u6BudB-13" value="NavegadorInternet" style="whiteSpace=wrap;html=1;fillColor=#e1d5e7;strokeColor=#9673a6;rounded=0;" vertex="1" parent="1">
          <mxGeometry x="570" y="200" width="120" height="60" as="geometry" />
        </mxCell>
        <mxCell id="vVHXO90k3WB2f8u6BudB-15" value="" style="rounded=0;whiteSpace=wrap;html=1;fillColor=#e1d5e7;strokeColor=#9673a6;" vertex="1" parent="1">
          <mxGeometry x="70" y="260" width="120" height="10" as="geometry" />
        </mxCell>
        <mxCell id="vVHXO90k3WB2f8u6BudB-16" value="Tocar (),&lt;div&gt;Pausar (),&lt;br&gt;selecionarMusica&lt;/div&gt;&lt;div&gt;(String musica);&lt;/div&gt;" style="rounded=0;whiteSpace=wrap;html=1;fillColor=#e1d5e7;strokeColor=#9673a6;" vertex="1" parent="1">
          <mxGeometry x="70" y="270" width="120" height="60" as="geometry" />
        </mxCell>
        <mxCell id="vVHXO90k3WB2f8u6BudB-17" value="" style="rounded=0;whiteSpace=wrap;html=1;fillColor=#e1d5e7;strokeColor=#9673a6;" vertex="1" parent="1">
          <mxGeometry x="300" y="260" width="120" height="10" as="geometry" />
        </mxCell>
        <mxCell id="vVHXO90k3WB2f8u6BudB-19" value="ligar(String numero),&lt;div&gt;atender(),&lt;/div&gt;&lt;div&gt;iniciarCorreioVoz()&lt;/div&gt;" style="rounded=0;whiteSpace=wrap;html=1;fillColor=#e1d5e7;strokeColor=#9673a6;" vertex="1" parent="1">
          <mxGeometry x="300" y="270" width="120" height="60" as="geometry" />
        </mxCell>
        <mxCell id="vVHXO90k3WB2f8u6BudB-20" value="" style="rounded=0;whiteSpace=wrap;html=1;fillColor=#e1d5e7;strokeColor=#9673a6;" vertex="1" parent="1">
          <mxGeometry x="570" y="260" width="120" height="10" as="geometry" />
        </mxCell>
        <mxCell id="vVHXO90k3WB2f8u6BudB-22" value="exibirPagina(String url),&lt;div&gt;adicionarNovaAba(),&lt;/div&gt;&lt;div&gt;atualizarPagina()&lt;/div&gt;" style="rounded=0;whiteSpace=wrap;html=1;fillColor=#e1d5e7;strokeColor=#9673a6;" vertex="1" parent="1">
          <mxGeometry x="570" y="270" width="120" height="60" as="geometry" />
        </mxCell>
      </root>
    </mxGraphModel>
  </diagram>
</mxfile>
